#N canvas 1487 698 996 593 10;
#X obj 154 445 *~;
#X obj 152 506 outlet~;
#X obj 118 24 inlet;
#X obj 154 344 line~;
#X obj 439 357 line~;
#X obj 439 382 tabread~ window;
#X obj 597 134 * 1;
#X obj 203 230 +;
#X msg 154 307 \$1 \, \$2 \$3;
#X obj 154 279 pack 0 44100 1000;
#X obj 154 164 f 0;
#X obj 603 98 t b f;
#X obj 597 162 t b f;
#X text 114 6 trigger;
#X msg 439 333 \$1 \, \$2 \$3;
#X obj 118 81 t b;
#X obj 603 49 expr exp(.057762265 * $f1);
#X text 618 71 nice trick to convert semitones to pitch ratio;
#X obj 623 188 * 44.1;
#X text 526 474 By Kristian Nymoen \, 2015;
#X obj 118 51 route bang list;
#X text 16 50 3 element list;
#X text 14 72 or bang trigger;
#X obj 403 258 t b;
#X obj 439 310 pack 0 512 1000;
#X text 513 334 play through window (size = 512 samples) for [duration]
ms;
#X obj 153 477 *~;
#X obj 366 432 * 0.01;
#X obj 321 485 line~;
#X msg 366 453 \$1 2;
#X obj 161 80 unpack f f f f;
#X obj 154 378 tabread4~ \$1;
#X obj 700 116 r samplerate;
#X obj 700 137 * 0.001;
#X connect 0 0 26 0;
#X connect 2 0 20 0;
#X connect 3 0 31 0;
#X connect 4 0 5 0;
#X connect 5 0 0 1;
#X connect 6 0 12 0;
#X connect 7 0 9 1;
#X connect 8 0 3 0;
#X connect 9 0 8 0;
#X connect 10 0 9 0;
#X connect 11 0 6 0;
#X connect 11 1 6 1;
#X connect 12 0 7 0;
#X connect 12 1 18 0;
#X connect 14 0 4 0;
#X connect 15 0 10 0;
#X connect 15 0 24 0;
#X connect 16 0 11 0;
#X connect 18 0 7 1;
#X connect 20 0 15 0;
#X connect 20 1 30 0;
#X connect 23 0 24 0;
#X connect 24 0 14 0;
#X connect 26 0 1 0;
#X connect 27 0 29 0;
#X connect 28 0 26 1;
#X connect 29 0 28 0;
#X connect 30 0 7 0;
#X connect 30 0 10 0;
#X connect 30 0 23 0;
#X connect 30 1 9 2;
#X connect 30 1 6 0;
#X connect 30 1 24 2;
#X connect 30 2 16 0;
#X connect 30 3 27 0;
#X connect 31 0 0 0;
#X connect 32 0 33 0;
#X connect 33 0 18 1;
