#N canvas 0 23 1034 728 12;
#X obj 27 18 inlet;
#X obj 29 625 outlet~;
#N canvas 45 599 922 768 graindetails 1;
#X obj 258 341 nbx 5 14 -1e+37 1e+37 0 0 empty empty empty 0 -8 0 10
-262144 -1 -1 24.8 256;
#X obj 468 359 nbx 5 14 -1e+37 1e+37 0 0 empty empty empty 0 -8 0 10
-262144 -1 -1 0 256;
#X obj 99 342 nbx 5 14 -1e+37 1e+37 0 0 empty empty empty 0 -8 0 10
-262144 -1 -1 103089 256;
#X obj 274 82 route range;
#X obj 363 82 route range;
#X obj 564 107 route range;
#N canvas 298 423 557 309 randomFromRange 0;
#X obj 88 46 inlet;
#X obj 88 160 random;
#X obj 135 97 unpack;
#X obj 134 132 expr $f2 - $f1;
#X obj 88 198 +;
#X obj 88 230 outlet;
#X obj 135 47 inlet;
#X text 200 78 selecting a random number from a range;
#X text 139 25 range;
#X text 79 25 trigger;
#X connect 0 0 1 0;
#X connect 1 0 4 0;
#X connect 2 0 3 0;
#X connect 2 0 4 1;
#X connect 2 1 3 1;
#X connect 3 0 1 1;
#X connect 4 0 5 0;
#X connect 6 0 2 0;
#X restore 258 270 pd randomFromRange;
#X obj 468 311 - 24;
#X obj 45 22 inlet;
#X obj 120 515 outlet;
#X obj 45 193 t b b b b;
#X obj 45 343 + 1;
#X obj 45 375 % 6;
#X obj 45 302 i;
#X obj 644 13 inlet;
#N canvas 735 201 450 300 tiltselectFromRange 0;
#X obj 88 46 inlet;
#X obj 162 97 unpack, f 14;
#X obj 162 132 expr $f2 - $f1;
#X obj 88 230 outlet;
#X obj 135 47 inlet;
#X text 139 25 range;
#X text 79 25 trigger;
#X obj 283 15 loadbang;
#X msg 283 40 24 24;
#X obj 88 106 * 0.5;
#X obj 88 128 + 0.5;
#X obj 88 162 * 0;
#X obj 88 184 + 24;
#X text 133 170 selecting a number from a range using X tilt data;
#X obj 290 99 receive DancePitch;
#X obj 135 68 t b list;
#X connect 0 0 9 0;
#X connect 1 0 2 0;
#X connect 1 0 12 1;
#X connect 1 1 2 1;
#X connect 2 0 11 1;
#X connect 4 0 15 0;
#X connect 7 0 8 0;
#X connect 8 0 1 0;
#X connect 9 0 10 0;
#X connect 10 0 11 0;
#X connect 11 0 12 0;
#X connect 12 0 3 0;
#X connect 14 0 1 0;
#X connect 15 0 9 0;
#X connect 15 1 1 0;
#X restore 468 272 pd tiltselectFromRange;
#X obj 274 17 receive ranges;
#X obj 274 44 route /audiobuffer /durationrange /pitchrange;
#N canvas 25 381 450 300 randomFromRange 0;
#X obj 88 46 inlet;
#X obj 88 160 random;
#X obj 135 97 unpack;
#X obj 134 132 expr $f2 - $f1;
#X obj 88 198 +;
#X obj 88 230 outlet;
#X obj 135 47 inlet;
#X text 200 78 selecting a random number from a range;
#X text 139 25 range;
#X text 79 25 trigger;
#X connect 0 0 1 0;
#X connect 1 0 4 0;
#X connect 2 0 3 0;
#X connect 2 0 4 1;
#X connect 2 1 3 1;
#X connect 3 0 1 1;
#X connect 4 0 5 0;
#X connect 6 0 2 0;
#X restore 99 268 pd randomFromRange;
#N canvas 173 96 617 575 ifPlaythru 0;
#X obj 30 9 inlet;
#X obj 30 414 outlet;
#X obj 247 34 receive playthru;
#X obj 30 344 spigot, f 7;
#X obj 30 292 pack;
#X obj 42 245 t b f;
#X obj 42 113 == 0;
#X msg 247 369 \$1 \$1;
#X obj 247 291 pack;
#X obj 247 160 t b f, f 8;
#X obj 247 343 spigot, f 8;
#X text 258 396 if playthru option is enabled;
#X text 258 410 playback will always start at;
#X text 257 424 the first selected sample;
#X obj 71 152 loadbang;
#X msg 159 248 0 88200;
#X msg 71 217 1;
#X obj 71 197 del 1;
#X obj 456 160 * 44.1;
#X obj 396 85 receive DanceRange;
#X obj 456 131 receive BufferLength;
#X obj 456 187 * 0.9;
#X obj 411 230 pack 0 0;
#X msg 411 185 0;
#X connect 0 0 4 0;
#X connect 0 0 8 0;
#X connect 2 0 6 0;
#X connect 2 0 9 0;
#X connect 3 0 1 0;
#X connect 4 0 3 0;
#X connect 5 0 4 0;
#X connect 5 1 3 1;
#X connect 6 0 5 0;
#X connect 7 0 1 0;
#X connect 8 0 10 0;
#X connect 9 0 8 0;
#X connect 9 1 10 1;
#X connect 10 0 7 0;
#X connect 14 0 15 0;
#X connect 14 0 17 0;
#X connect 15 0 8 0;
#X connect 15 0 4 0;
#X connect 16 0 5 0;
#X connect 17 0 16 0;
#X connect 18 0 21 0;
#X connect 19 0 23 0;
#X connect 20 0 18 0;
#X connect 21 0 22 1;
#X connect 22 0 1 0;
#X connect 23 0 22 0;
#X restore 204 175 pd ifPlaythru;
#X obj 180 14 loadbang;
#X text 268 321 duration (ms);
#X text 102 321 start time (sample);
#X text 485 339 pitch shift;
#X msg 180 38 range 0 88200;
#X obj 120 467 pack 0 0 0 0 0;
#X obj 682 366 random 20;
#X obj 662 405 + 80;
#X msg 155 86 range 1 200;
#X connect 0 0 25 2;
#X connect 1 0 25 3;
#X connect 2 0 25 1;
#X connect 3 0 19 0;
#X connect 4 0 6 1;
#X connect 5 0 15 1;
#X connect 6 0 0 0;
#X connect 7 0 1 0;
#X connect 8 0 10 0;
#X connect 10 0 13 0;
#X connect 10 1 18 0;
#X connect 10 2 6 0;
#X connect 10 3 26 0;
#X connect 11 0 12 0;
#X connect 11 0 13 1;
#X connect 12 0 25 0;
#X connect 13 0 11 0;
#X connect 14 0 15 0;
#X connect 15 0 7 0;
#X connect 16 0 17 0;
#X connect 17 0 3 0;
#X connect 17 1 4 0;
#X connect 17 2 5 0;
#X connect 18 0 2 0;
#X connect 19 0 18 1;
#X connect 20 0 24 0;
#X connect 20 0 28 0;
#X connect 24 0 3 0;
#X connect 25 0 9 0;
#X connect 26 0 27 0;
#X connect 27 0 25 4;
#X connect 28 0 4 0;
#X restore 29 149 pd graindetails;
#X obj 276 24 inlet, f 6;
#X obj 29 182 route 0 1 2 3 4 5, f 89;
#N canvas 410 23 450 300 probThru 0;
#X obj 193 38 inlet;
#X obj 73 38 inlet;
#X obj 73 208 spigot, f 16;
#X obj 100 114 random 100;
#X obj 193 147 * 100;
#X obj 166 177 < 100;
#X obj 73 74 t b b;
#X obj 73 247 outlet;
#X text 38 10 Let bang through with some probability;
#X text 236 38 prob: 0-1;
#X text 36 36 bang, f 16;
#X connect 0 0 4 0;
#X connect 1 0 6 0;
#X connect 2 0 7 0;
#X connect 3 0 5 0;
#X connect 4 0 5 1;
#X connect 5 0 2 1;
#X connect 6 0 2 0;
#X connect 6 1 3 0;
#X restore 30 99 pd probThru;
#X floatatom 79 70 5 0 0 0 - - -;
#X obj 72 14 loadbang;
#X msg 72 38 1;
#X obj 490 433 kns_shootgrain \$1;
#X obj 398 389 kns_shootgrain \$1;
#X obj 211 293 kns_shootgrain \$1;
#X obj 29 217 kns_shootgrain \$1;
#X obj 112 254 kns_shootgrain \$1;
#X obj 297 350 kns_shootgrain \$1;
#X connect 0 0 5 0;
#X connect 2 0 4 0;
#X connect 3 0 2 1;
#X connect 4 0 12 0;
#X connect 4 1 13 0;
#X connect 4 2 11 0;
#X connect 4 3 14 0;
#X connect 4 4 10 0;
#X connect 4 5 9 0;
#X connect 5 0 2 0;
#X connect 6 0 5 1;
#X connect 7 0 8 0;
#X connect 8 0 6 0;
#X connect 9 0 1 0;
#X connect 10 0 1 0;
#X connect 11 0 1 0;
#X connect 12 0 1 0;
#X connect 13 0 1 0;
#X connect 14 0 1 0;
