#N canvas 1095 235 1299 884 12;
#X floatatom 148 113 0 0 0 0 - - -;
#X obj 148 484 *~;
#X obj 271 411 line~;
#X floatatom 271 148 0 0 0 0 - - -;
#X text 73 41 PITCH SHIFTER;
#X obj 271 385 pack 0 200;
#X obj 271 122 r window;
#X obj 148 87 r transpose;
#X obj 148 169 exp;
#X floatatom 148 195 6 0 0 0 - - -;
#X obj 148 285 /;
#X obj 196 219 * 0.001;
#X obj 370 472 line~;
#X obj 370 447 pack 0 200;
#X floatatom 370 396 0 0 0 0 - - -;
#X obj 370 370 r delay;
#X obj 148 510 +~;
#X obj 85 536 cos~;
#X obj 85 563 *~;
#X obj 226 607 +~;
#X obj 212 413 wrap~;
#X obj 307 467 *~;
#X obj 307 519 +~;
#X obj 244 546 cos~;
#X obj 244 573 *~;
#X msg 527 66 \; transpose 0 \; window 100 \; delay 0;
#X obj 527 40 loadbang;
#X obj 196 246 t b f;
#X floatatom 148 311 6 0 0 0 - - -;
#X obj 212 386 +~ 0.5;
#X obj 85 484 -~ 0.5;
#X obj 85 510 *~ 0.5;
#X obj 244 466 -~ 0.5;
#X obj 244 518 *~ 0.5;
#X obj 148 222 - 1;
#X obj 148 143 * 0.05776;
#X obj 148 248 * -1;
#X text 101 189 speed;
#X text 94 203 change;
#X text 76 302 tape head;
#X obj 148 342 phasor~;
#X obj 370 423 max 1.5;
#X text 373 329 delay;
#X text 370 347 (msec);
#X obj 271 175 max 1;
#X text 76 315 rotation freq, f 9;
#X text 304 148 <= window (msec);
#X text 39 98 transposition;
#X text 38 111 (halftones) =>;
#X obj 279 43 inlet~;
#X obj 226 804 outlet~;
#X text 438 627 copied from the pitch shifting example G09.pitchshift.pd
;
#X obj 307 548 vd~ \$1;
#X obj 148 536 vd~ \$1;
#X obj 279 74 delwrite~ \$1 5000;
#X obj 766 47 inlet;
#X obj 226 699 lop~;
#X obj 688 282 + 12;
#X obj 688 325 / 24;
#X floatatom 682 424 5 0 0 0 - - -;
#X obj 683 393 + 1000;
#X obj 684 361 * 6000;
#X obj 713 200 tabread valid_pitchshifts;
#X floatatom 713 224 5 0 0 0 - - -;
#X obj 712 131 / 127;
#X obj 712 162 * 4;
#X connect 0 0 35 0;
#X connect 0 0 57 0;
#X connect 1 0 16 0;
#X connect 2 0 1 1;
#X connect 2 0 21 1;
#X connect 3 0 44 0;
#X connect 5 0 2 0;
#X connect 6 0 3 0;
#X connect 7 0 0 0;
#X connect 8 0 9 0;
#X connect 9 0 34 0;
#X connect 10 0 28 0;
#X connect 11 0 27 0;
#X connect 12 0 16 1;
#X connect 12 0 22 1;
#X connect 13 0 12 0;
#X connect 14 0 41 0;
#X connect 15 0 14 0;
#X connect 16 0 53 0;
#X connect 17 0 18 0;
#X connect 18 0 19 0;
#X connect 19 0 56 0;
#X connect 20 0 21 0;
#X connect 20 0 32 0;
#X connect 21 0 22 0;
#X connect 22 0 52 0;
#X connect 23 0 24 0;
#X connect 24 0 19 1;
#X connect 26 0 25 0;
#X connect 27 0 10 0;
#X connect 27 1 10 1;
#X connect 28 0 40 0;
#X connect 29 0 20 0;
#X connect 30 0 31 0;
#X connect 31 0 17 0;
#X connect 32 0 33 0;
#X connect 33 0 23 0;
#X connect 34 0 36 0;
#X connect 35 0 8 0;
#X connect 36 0 10 0;
#X connect 40 0 1 0;
#X connect 40 0 30 0;
#X connect 40 0 29 0;
#X connect 41 0 13 0;
#X connect 44 0 11 0;
#X connect 44 0 5 0;
#X connect 49 0 54 0;
#X connect 52 0 24 1;
#X connect 53 0 18 1;
#X connect 55 0 64 0;
#X connect 56 0 50 0;
#X connect 57 0 58 0;
#X connect 58 0 61 0;
#X connect 59 0 56 1;
#X connect 60 0 59 0;
#X connect 61 0 60 0;
#X connect 62 0 63 0;
#X connect 62 0 0 0;
#X connect 64 0 65 0;
#X connect 65 0 62 0;
