#N canvas 0 23 1207 898 12;
#X obj 217 54 inlet;
#X msg 1081 346 bang;
#X msg 306 384 stop;
#X obj 306 259 t b b;
#X obj 217 134 sel 1 0, f 26;
#X obj 218 174 t b b, f 9;
#X obj 217 93 tgl 15 0 empty empty empty 17 7 0 10 -262144 -1 -1 0
1;
#X obj 606 258 receive~ pulse;
#X obj 606 311 *~;
#X obj 624 286 r loopperiode_samples;
#X obj 606 343 snapshot~;
#X msg 561 432 start \$1;
#X obj 218 427 line~;
#X obj 200 485 *~;
#X obj 856 207 bng 15 250 50 0 empty empty empty 17 7 0 10 -262144
-1 -1;
#X obj 1014 181 spigot;
#X text 265 50 toggle record;
#X obj 561 396 - 64;
#X obj 837 230 receive loopstart;
#X obj 37 440 inlet~;
#X obj 1014 205 del 3;
#X msg 218 348 1 2;
#X msg 246 377 0 2;
#X obj 306 336 del 2;
#X text 140 421 soft start;
#X text 1070 179 if record still active \, then retrigger recording
at the beginning of new loop;
#X text 399 403 record 64 samples in the past to avoid audio glitches
, f 22;
#X text 1070 212 del 3 to avoid audio glitches;
#X obj 200 704 tabwrite~ \$1;
#X obj 744 408 tabplay~ \$1;
#X connect 0 0 6 0;
#X connect 1 0 28 0;
#X connect 1 0 29 0;
#X connect 2 0 28 0;
#X connect 3 0 23 0;
#X connect 3 1 22 0;
#X connect 4 0 5 0;
#X connect 4 1 3 0;
#X connect 5 0 21 0;
#X connect 5 1 10 0;
#X connect 6 0 4 0;
#X connect 6 0 15 1;
#X connect 7 0 8 0;
#X connect 8 0 10 0;
#X connect 9 0 8 1;
#X connect 10 0 17 0;
#X connect 10 0 29 0;
#X connect 11 0 28 0;
#X connect 12 0 13 1;
#X connect 13 0 28 0;
#X connect 14 0 15 0;
#X connect 15 0 20 0;
#X connect 17 0 11 0;
#X connect 18 0 14 0;
#X connect 19 0 13 0;
#X connect 20 0 1 0;
#X connect 21 0 12 0;
#X connect 22 0 12 0;
#X connect 23 0 2 0;
#X connect 29 0 28 0;
